<svg xmlns="http://www.w3.org/2000/svg" width="91.6" height="40.4" viewBox="0 0 91.6 40.4">
  <g id="logo_ynov" transform="translate(-29.7 -10.2)">
    <path id="Tracé_21" data-name="Tracé 21" d="M48.6,35.6h1.2v6.2H48.6Z" fill="#fff"/>
    <path id="Tracé_22" data-name="Tracé 22" d="M52.7,35.6l3.2,4.2V35.6h1.2v6.2H56l-3.2-4.2v4.2H51.6V35.6Z" fill="#ffefef"/>
    <path id="Tracé_23" data-name="Tracé 23" d="M63.2,35.6v1H60.1v1.7h2.8v1H60.1v2.4H58.9V35.5Z" fill="#fff"/>
    <path id="Tracé_24" data-name="Tracé 24" d="M70.5,38.7a3.1,3.1,0,0,1-3.3,3.1,3.164,3.164,0,0,1-3.3-3.1,3.306,3.306,0,0,1,6.6,0m-5.4,0a2.1,2.1,0,0,0,4.2,0,2.051,2.051,0,0,0-2.1-2.1,2.112,2.112,0,0,0-2.1,2.1" fill="#fff"/>
    <path id="Tracé_25" data-name="Tracé 25" d="M75.8,41.8,74.7,40H73.1v1.8H71.9V35.6h2.6c1.6,0,2.5.8,2.5,2.1a1.924,1.924,0,0,1-1.2,2l1.4,2-1.4.1Zm-2.7-2.9h1.4c.9,0,1.4-.4,1.4-1.2s-.5-1.1-1.4-1.1H73.1Z" fill="#fff"/>
    <path id="Tracé_26" data-name="Tracé 26" d="M80,35.6l1.9,4,1.9-4h1.4v6.2H84.1V37.4l-1.8,3.8h-.8l-1.8-3.8v4.4H78.6V35.6Z" fill="#fff"/>
    <path id="Tracé_27" data-name="Tracé 27" d="M91.1,40.5h-3l-.5,1.3H86.4l2.7-6.2h1.2L93,41.8H91.7Zm-.4-1.1-1.1-2.6-1.1,2.6Z" fill="#fff"/>
    <path id="Tracé_28" data-name="Tracé 28" d="M97.8,35.6v1.1H95.9v5.1H94.7V36.7H92.8V35.6Z" fill="#fff"/>
    <path id="Tracé_29" data-name="Tracé 29" d="M98.9,35.6h1.2v6.2H98.9Z" fill="#fff"/>
    <path id="Tracé_30" data-name="Tracé 30" d="M108.4,42.5a2.837,2.837,0,0,1-1.7.7,2.423,2.423,0,0,1-2-1.3,3.227,3.227,0,0,1-3.3-3.1,3.1,3.1,0,0,1,3.3-3.1,3.164,3.164,0,0,1,3.3,3.1,3.215,3.215,0,0,1-2.2,3,1.382,1.382,0,0,0,.9.5,2.108,2.108,0,0,0,1.1-.5Zm-3.6-1.7a2.112,2.112,0,0,0,2.1-2.1,2.051,2.051,0,0,0-2.1-2.1,2.112,2.112,0,0,0-2.1,2.1,2.182,2.182,0,0,0,2.1,2.1" fill="#fff"/>
    <path id="Tracé_31" data-name="Tracé 31" d="M112.2,40.8a1.446,1.446,0,0,0,1.5-1.6V35.6h1.2v3.6a2.7,2.7,0,0,1-5.4,0V35.6h1.2v3.6a1.357,1.357,0,0,0,1.5,1.6" fill="#fff"/>
    <path id="Tracé_32" data-name="Tracé 32" d="M121.1,35.6v1h-3.3v1.5h3v1h-3v1.6h3.5v1h-4.6V35.5Z" fill="#fff"/>
    <g id="Groupe_6" data-name="Groupe 6">
      <path id="Tracé_33" data-name="Tracé 33" d="M73.1,44.3a3.222,3.222,0,0,1,3.2,3.2,3.138,3.138,0,0,1-3.2,3.1A3.2,3.2,0,0,1,70,47.4a2.993,2.993,0,0,1,3.1-3.1m0,5.5a2.3,2.3,0,1,0-2.3-2.3,2.326,2.326,0,0,0,2.3,2.3" fill="#5dc4e9"/>
      <path id="Tracé_34" data-name="Tracé 34" d="M66.1,50.3h-.3c-.1,0-.2,0-.2-.2a2.92,2.92,0,0,1,.2-.9c.2-1,.4-2.1.5-3.1,0-.3,0-.3.3-.3a3.812,3.812,0,0,1,1.5-.1,1.09,1.09,0,0,1,1,1.1,3.653,3.653,0,0,1-.3,1.5,1.568,1.568,0,0,1-1.4.9h-.6c-.1,0-.1,0-.1.1,0,.3-.1.6-.1.9a.215.215,0,0,1-.2.2.367.367,0,0,0-.3-.1m.8-1.9h.6c.2,0,.3-.1.4-.3a.9.9,0,0,0,.1-.5c0-.3.1-.5.1-.8a.265.265,0,0,0-.3-.3h-.5a.1.1,0,0,0-.1.1,5.663,5.663,0,0,1-.3,1.8" fill="#5dc4e9"/>
      <path id="Tracé_35" data-name="Tracé 35" d="M63.3,45.7h.3c.1,0,.2,0,.1.2-.1.3-.1.7-.2,1.1,0,.3-.1.6-.1.9-.1.5.1.6.6.5a.265.265,0,0,0,.3-.3c.1-.2.1-.5.2-.7l.3-1.5a.215.215,0,0,1,.2-.2h.6c.2,0,.2,0,.2.2a5.9,5.9,0,0,0-.2,1.4c-.1.3-.1.6-.2.9a1.5,1.5,0,0,1-1.5,1.1,1.7,1.7,0,0,1-.7-.1,1.086,1.086,0,0,1-.7-1.2c.1-.7.2-1.3.3-2,0-.1.1-.2.2-.1.1-.2.2-.2.3-.2" fill="#5dc4e9"/>
      <path id="Tracé_36" data-name="Tracé 36" d="M60.3,49.3c-.3,0-.6-.1-1-.1-.1,0-.2-.1-.1-.2a.6.6,0,0,1,.1-.4.215.215,0,0,1,.2-.2c.3,0,.7.1,1,.1h.1a.215.215,0,0,0,.2-.2.367.367,0,0,0-.1-.3c-.2-.2-.5-.3-.7-.5a.913.913,0,0,1-.2-1.4,2.01,2.01,0,0,1,.8-.4,3.329,3.329,0,0,1,1.4.1c.1,0,.2.1.1.2a.6.6,0,0,1-.1.4c0,.1-.1.1-.2.1a2.2,2.2,0,0,1-.8-.1h-.3c-.1,0-.1.1-.2.1,0,.1,0,.1.1.2a2.186,2.186,0,0,1,.5.3l.2.1a1.027,1.027,0,0,1,0,1.7,2.354,2.354,0,0,1-.8.2.769.769,0,0,1-.2.3h0" fill="#5dc4e9"/>
      <path id="Tracé_37" data-name="Tracé 37" d="M55.1,49.2h-1a.736.736,0,0,1-.8-.8,4.671,4.671,0,0,1,.3-1.7,1.265,1.265,0,0,1,1-.7,3.75,3.75,0,0,1,1.1.1c.1,0,.1,0,.1.2a28.677,28.677,0,0,0-.5,3.1.367.367,0,0,1-.1.3.856.856,0,0,1-.9.7,3.75,3.75,0,0,1-1.1-.1c-.1,0-.1,0-.1-.1a.1.1,0,0,1,.1-.1c.3,0,.7.1,1,.1a.666.666,0,0,0,.7-.5c.1-.3.2-.4.2-.5m.5-3a2.719,2.719,0,0,0-.9,0,1.087,1.087,0,0,0-1,.7c0,.2-.1.3-.1.5,0,.3-.1.6-.1.9a.661.661,0,0,0,.6.7,2.769,2.769,0,0,0,.9-.1l.1-.1a6.753,6.753,0,0,0,.2-1.4,5.274,5.274,0,0,0,.3-1.2" fill="#5dc4e9"/>
      <path id="Tracé_38" data-name="Tracé 38" d="M56.6,47.6v.7c0,.4.3.6.7.6a4.1,4.1,0,0,0,1.1-.1h.1c0,.1,0,.2-.1.2-.4,0-.7.1-1.1.1H57a.73.73,0,0,1-.6-.7,2.885,2.885,0,0,1,.3-1.8,1.351,1.351,0,0,1,1.6-.7.76.76,0,0,1,.6.8v.7c0,.1-.1.1-.2.1H56.6Zm2-.2v-.6a.634.634,0,0,0-.5-.6,1.208,1.208,0,0,0-1.4,1.2h1.9Z" fill="#5dc4e9"/>
      <path id="Tracé_39" data-name="Tracé 39" d="M51.7,46.2h-.3a.634.634,0,0,0-.6.5c-.1.3-.1.6-.2.9l-.3,1.5a.1.1,0,0,1-.1.1c-.1,0-.2,0-.2-.2.1-.7.3-1.4.4-2.2a.367.367,0,0,1,.1-.3.876.876,0,0,1,.9-.7h.7a.661.661,0,0,1,.6.7c0,.3-.1.7-.1,1a6.753,6.753,0,0,0-.2,1.4c0,.1-.1.2-.2.1,0,0-.1-.1,0-.1.1-.4.1-.8.2-1.2s.1-.7.2-1.1A.53.53,0,0,0,52,46C51.9,46.2,51.8,46.2,51.7,46.2Z" fill="#5dc4e9"/>
      <path id="Tracé_40" data-name="Tracé 40" d="M49,49.1a2.92,2.92,0,0,1,.2-.9,14.159,14.159,0,0,1,.4-2c0-.1,0-.2.1-.2s.1,0,.1.1c-.1.4-.1.8-.2,1.2-.1.6-.2,1.1-.3,1.7,0,.1-.1.1-.2.1-.1.1-.1,0-.1,0" fill="#5dc4e9"/>
      <path id="Tracé_41" data-name="Tracé 41" d="M73.5,47.5c-.4-.3-.7-.7-1.1-1a.471.471,0,0,1-.1-.6.375.375,0,0,1,.6,0,8.636,8.636,0,0,1,1.4,1.3.483.483,0,0,1,0,.7c-.5.4-1,.9-1.5,1.3-.2.2-.4.1-.6,0-.2-.2-.1-.4,0-.6.3-.3.7-.6,1-.9.2-.2.2-.2.3-.2" fill="#5dc4e9"/>
      <path id="Tracé_42" data-name="Tracé 42" d="M79.5,29.4a9.6,9.6,0,0,0,9.7-9.5,9.7,9.7,0,0,0-19.4,0A9.669,9.669,0,0,0,79.5,29.4Zm0-14.5a5,5,0,1,1-5.1,5A5.1,5.1,0,0,1,79.5,14.9Z" fill="#5dc4e9"/>
      <path id="Tracé_43" data-name="Tracé 43" d="M48.5,29.4h4.6V20a5.1,5.1,0,1,1,10.2,0v9.3h4.6V20a9.7,9.7,0,1,0-19.4,0v9.4Z" fill="#5dc4e9"/>
      <path id="Tracé_44" data-name="Tracé 44" d="M38.1,20.2a5.23,5.23,0,0,0-.3-1.8l-3.1-8.1h-5l5.5,14.3A4.735,4.735,0,0,0,38.1,20.2Z" fill="#5dc4e9"/>
      <path id="Tracé_45" data-name="Tracé 45" d="M100.7,29.4l7.4-19.1h-5L95.7,29.4Z" fill="#5dc4e9"/>
      <path id="Tracé_46" data-name="Tracé 46" d="M96.8,20.2a5.23,5.23,0,0,0-.3-1.8l-3.1-8.1h-5l5.5,14.3A4.588,4.588,0,0,0,96.8,20.2Z" fill="#5dc4e9"/>
      <path id="Tracé_47" data-name="Tracé 47" d="M44.4,10.3,32.2,41.8h5L49.4,10.3Z" fill="#5dc4e9"/>
    </g>
  </g>
</svg>
