<?xml version="1.0" encoding="utf-8"?>
<!-- Generator: Adobe Illustrator 22.1.0, SVG Export Plug-In . SVG Version: 6.00 Build 0)  -->
<svg version="1.1" id="Calque_1" xmlns="http://www.w3.org/2000/svg" xmlns:xlink="http://www.w3.org/1999/xlink" x="0px" y="0px"
	 viewBox="0 0 177 62" style="enable-background:new 0 0 177 62;" xml:space="preserve">
<style type="text/css">
	.st0{fill:#5DC4E9;}
</style>
<g>
	<path d="M48.6,35.6h1.2v6.2h-1.2V35.6z"/>
	<path d="M52.7,35.6l3.2,4.2v-4.2h1.2v6.2H56l-3.2-4.2v4.2h-1.2v-6.2H52.7z"/>
	<path d="M63.2,35.6l0,1h-3.1v1.7h2.8v1h-2.8v2.4h-1.2v-6.2L63.2,35.6z"/>
	<path d="M70.5,38.7c0,1.8-1.4,3.1-3.3,3.1s-3.3-1.4-3.3-3.1c0-1.8,1.4-3.1,3.3-3.1S70.5,36.9,70.5,38.7 M65.1,38.7
		c0,1.2,1,2.1,2.1,2.1c1.1,0,2.1-0.9,2.1-2.1c0-1.2-0.9-2.1-2.1-2.1C66.1,36.6,65.1,37.5,65.1,38.7"/>
	<path d="M75.8,41.8l-1.1-1.8c-0.1,0-0.1,0-0.2,0h-1.4v1.8h-1.2v-6.2h2.6c1.6,0,2.5,0.8,2.5,2.1c0,1-0.4,1.7-1.2,2l1.4,2L75.8,41.8
		L75.8,41.8z M73.1,38.9h1.4c0.9,0,1.4-0.4,1.4-1.2c0-0.8-0.5-1.1-1.4-1.1h-1.4V38.9z"/>
	<path d="M80,35.6l1.9,4l1.9-4h1.4v6.2h-1.1l0-4.4l-1.8,3.8h-0.8l-1.8-3.8v4.4h-1.1v-6.2H80z"/>
	<path d="M91.1,40.5h-3l-0.5,1.3h-1.2l2.7-6.2h1.2l2.7,6.2h-1.3L91.1,40.5z M90.7,39.4l-1.1-2.6l-1.1,2.6H90.7z"/>
	<path d="M97.8,35.6v1.1h-1.9v5.1h-1.2v-5.1h-1.9v-1.1H97.8z"/>
	<path d="M98.9,35.6h1.2v6.2h-1.2V35.6z"/>
	<path d="M108.4,42.5c-0.5,0.4-1.1,0.7-1.7,0.7c-0.8,0-1.5-0.5-2-1.3c-1.8,0-3.3-1.4-3.3-3.1c0-1.8,1.4-3.1,3.3-3.1
		c1.9,0,3.3,1.4,3.3,3.1c0,1.4-0.9,2.5-2.2,3c0.3,0.3,0.6,0.5,0.9,0.5c0.3,0,0.7-0.2,1.1-0.5L108.4,42.5z M104.8,40.8
		c1.1,0,2.1-0.9,2.1-2.1c0-1.2-0.9-2.1-2.1-2.1c-1.1,0-2.1,0.9-2.1,2.1C102.7,39.8,103.7,40.8,104.8,40.8"/>
	<path d="M112.2,40.8c0.9,0,1.5-0.6,1.5-1.6v-3.6h1.2v3.6c0,1.6-1,2.6-2.7,2.6c-1.7,0-2.7-1-2.7-2.6v-3.6h1.2v3.6
		C110.6,40.2,111.2,40.8,112.2,40.8"/>
	<path d="M121.1,35.6v1h-3.3v1.5h3v1h-3v1.6h3.5v1h-4.6v-6.2L121.1,35.6z"/>
	<g>
		<path class="st0" d="M73.1,44.3c1.8,0,3.2,1.5,3.2,3.2c0,1.7-1.4,3.1-3.2,3.1c-1.7,0-3.1-1.5-3.1-3.2
			C69.9,45.7,71.3,44.3,73.1,44.3 M73.1,49.8c1.3,0,2.3-1,2.3-2.3c0-1.3-1-2.3-2.3-2.3c-1.3,0-2.3,1-2.3,2.3
			C70.8,48.7,71.8,49.8,73.1,49.8"/>
		<path class="st0" d="M66.1,50.3h-0.3c-0.1,0-0.2,0-0.2-0.2c0-0.3,0.1-0.6,0.2-0.9c0.2-1,0.4-2.1,0.5-3.1c0-0.3,0-0.3,0.3-0.3
			c0.5-0.1,1-0.2,1.5-0.1c0.6,0.1,1,0.5,1,1.1c0,0.5-0.1,1.1-0.3,1.5c-0.3,0.6-0.7,0.8-1.4,0.9c-0.2,0-0.4,0-0.6,0
			c-0.1,0-0.1,0-0.1,0.1c0,0.3-0.1,0.6-0.1,0.9c0,0.1-0.1,0.2-0.2,0.2C66.3,50.3,66.2,50.3,66.1,50.3 M66.9,48.4c0.2,0,0.4,0,0.6,0
			c0.2,0,0.3-0.1,0.4-0.3c0.1-0.2,0.1-0.3,0.1-0.5c0-0.3,0.1-0.5,0.1-0.8c0-0.2-0.1-0.3-0.3-0.3c-0.2,0-0.4,0-0.5,0
			c0,0-0.1,0-0.1,0.1C67.2,47.2,67.1,47.8,66.9,48.4"/>
		<path class="st0" d="M63.3,45.7h0.3c0.1,0,0.2,0,0.1,0.2c-0.1,0.3-0.1,0.7-0.2,1.1c0,0.3-0.1,0.6-0.1,0.9
			c-0.1,0.5,0.1,0.6,0.6,0.5c0.2,0,0.3-0.1,0.3-0.3c0.1-0.2,0.1-0.5,0.2-0.7c0.1-0.5,0.2-1,0.3-1.5c0-0.1,0.1-0.2,0.2-0.2
			c0.2,0,0.4,0,0.6,0c0.2,0,0.2,0,0.2,0.2c-0.1,0.4-0.2,0.9-0.2,1.4c-0.1,0.3-0.1,0.6-0.2,0.9c-0.2,0.7-0.8,1.1-1.5,1.1
			c-0.2,0-0.5,0-0.7-0.1c-0.5-0.2-0.8-0.7-0.7-1.2c0.1-0.7,0.2-1.3,0.3-2c0-0.1,0.1-0.2,0.2-0.1C63.1,45.7,63.2,45.7,63.3,45.7"/>
		<path class="st0" d="M60.3,49.3c-0.3,0-0.6-0.1-1-0.1c-0.1,0-0.2-0.1-0.1-0.2c0-0.1,0-0.3,0.1-0.4c0-0.1,0.1-0.2,0.2-0.2
			c0.3,0,0.7,0.1,1,0.1c0,0,0.1,0,0.1,0c0.1,0,0.2-0.1,0.2-0.2c0-0.1,0-0.2-0.1-0.3c-0.2-0.2-0.5-0.3-0.7-0.5
			c-0.6-0.3-0.5-1.1-0.2-1.4c0.2-0.2,0.5-0.3,0.8-0.4c0.5-0.1,0.9,0,1.4,0.1c0.1,0,0.2,0.1,0.1,0.2c0,0.1,0,0.3-0.1,0.4
			c0,0.1-0.1,0.1-0.2,0.1c-0.3,0-0.5,0-0.8-0.1c-0.1,0-0.2,0-0.3,0c-0.1,0-0.1,0.1-0.2,0.1c0,0.1,0,0.1,0.1,0.2
			c0.2,0.1,0.4,0.2,0.5,0.3l0.2,0.1c0.7,0.4,0.5,1.4,0,1.7c-0.3,0.1-0.5,0.2-0.8,0.2C60.4,49.2,60.4,49.2,60.3,49.3
			C60.3,49.2,60.3,49.2,60.3,49.3"/>
		<path class="st0" d="M55.1,49.2c-0.3,0-0.6,0-1,0c-0.5,0-0.8-0.3-0.8-0.8c0-0.6,0.1-1.2,0.3-1.7c0.2-0.4,0.5-0.6,1-0.7
			c0.4,0,0.8,0,1.1,0.1c0.1,0,0.1,0,0.1,0.2c-0.2,1-0.4,2-0.5,3.1c0,0.1,0,0.2-0.1,0.3c-0.1,0.5-0.5,0.7-0.9,0.7
			c-0.4,0-0.8,0-1.1-0.1c-0.1,0-0.1,0-0.1-0.1c0-0.1,0.1-0.1,0.1-0.1c0.3,0,0.7,0.1,1,0.1c0.4,0,0.6-0.2,0.7-0.5
			C55,49.4,55.1,49.3,55.1,49.2 M55.6,46.2c-0.3,0-0.6-0.1-0.9,0c-0.5,0-0.8,0.3-1,0.7c0,0.2-0.1,0.3-0.1,0.5c0,0.3-0.1,0.6-0.1,0.9
			c0,0.4,0.2,0.6,0.6,0.7c0.3,0,0.6,0,0.9-0.1c0,0,0.1-0.1,0.1-0.1c0.1-0.5,0.2-0.9,0.2-1.4C55.5,47,55.5,46.6,55.6,46.2"/>
		<path class="st0" d="M56.6,47.6c0,0.2,0,0.5,0,0.7c0,0.4,0.3,0.6,0.7,0.6c0.4,0,0.7,0,1.1-0.1c0.1,0,0.1,0,0.1,0
			c0,0.1,0,0.2-0.1,0.2c-0.4,0-0.7,0.1-1.1,0.1c-0.1,0-0.2,0-0.3,0c-0.4-0.1-0.6-0.4-0.6-0.7c-0.1-0.6,0-1.2,0.3-1.8
			c0.3-0.7,1-0.8,1.6-0.7c0.4,0.1,0.6,0.4,0.6,0.8c0,0.2,0,0.5,0,0.7c0,0.1-0.1,0.1-0.2,0.1c-0.6,0-1.2,0-1.8,0H56.6z M58.6,47.4
			c0-0.2,0-0.4,0-0.6c0-0.3-0.2-0.5-0.5-0.6c-0.7-0.1-1.4,0.4-1.4,1.2H58.6z"/>
		<path class="st0" d="M51.7,46.2c-0.1,0-0.2,0-0.3,0c-0.3,0-0.5,0.2-0.6,0.5c-0.1,0.3-0.1,0.6-0.2,0.9c-0.1,0.5-0.2,1-0.3,1.5
			c0,0,0,0.1-0.1,0.1c-0.1,0-0.2,0-0.2-0.2c0.1-0.7,0.3-1.4,0.4-2.2c0-0.1,0-0.2,0.1-0.3c0.1-0.4,0.4-0.7,0.9-0.7c0.2,0,0.5,0,0.7,0
			c0.4,0.1,0.6,0.3,0.6,0.7c0,0.3-0.1,0.7-0.1,1c-0.1,0.5-0.2,0.9-0.2,1.4c0,0.1-0.1,0.2-0.2,0.1c0,0-0.1-0.1,0-0.1
			c0.1-0.4,0.1-0.8,0.2-1.2c0.1-0.4,0.1-0.7,0.2-1.1c0-0.4-0.2-0.6-0.6-0.6C51.9,46.2,51.8,46.2,51.7,46.2z"/>
		<path class="st0" d="M49,49.1c0-0.3,0.1-0.6,0.2-0.9c0.1-0.7,0.2-1.3,0.4-2c0-0.1,0-0.2,0.1-0.2c0.1,0,0.1,0,0.1,0.1
			c-0.1,0.4-0.1,0.8-0.2,1.2c-0.1,0.6-0.2,1.1-0.3,1.7c0,0.1-0.1,0.1-0.2,0.1C49,49.2,49,49.1,49,49.1"/>
		<path class="st0" d="M73.5,47.5c-0.4-0.3-0.7-0.7-1.1-1c-0.2-0.2-0.2-0.4-0.1-0.6c0.2-0.2,0.4-0.2,0.6,0c0.5,0.4,1,0.8,1.4,1.3
			c0.2,0.2,0.2,0.5,0,0.7c-0.5,0.4-1,0.9-1.5,1.3c-0.2,0.2-0.4,0.1-0.6,0c-0.2-0.2-0.1-0.4,0-0.6c0.3-0.3,0.7-0.6,1-0.9
			C73.4,47.5,73.4,47.5,73.5,47.5"/>
		<path class="st0" d="M79.5,29.4c5.4,0,9.7-4.3,9.7-9.5s-4.3-9.5-9.7-9.5c-5.4,0-9.7,4.3-9.7,9.5S74.2,29.4,79.5,29.4z M79.5,14.9
			c2.8,0,5.1,2.2,5.1,5c0,2.8-2.3,5-5.1,5c-2.8,0-5.1-2.2-5.1-5C74.5,17.1,76.7,14.9,79.5,14.9z"/>
		<path class="st0" d="M48.5,29.4h4.6V20c0-2.8,2.3-5.1,5.1-5.1c2.8,0,5.1,2.3,5.1,5.1v9.3h4.6V20c0-5.4-4.3-9.8-9.7-9.8
			s-9.7,4.4-9.7,9.8L48.5,29.4L48.5,29.4z"/>
		<path class="st0" d="M38.1,20.2c0-0.6-0.1-1.3-0.3-1.8l-3.1-8.1h-5l5.5,14.3C36.9,23.9,38.1,22.2,38.1,20.2z"/>
		<path class="st0" d="M100.7,29.4l7.4-19.1h-5l-7.4,19.1H100.7z"/>
		<path class="st0" d="M96.8,20.2c0-0.6-0.1-1.3-0.3-1.8l-3.1-8.1h-5l5.5,14.3C95.7,23.9,96.8,22.2,96.8,20.2z"/>
		<path class="st0" d="M44.4,10.3L32.2,41.8h5l12.2-31.5L44.4,10.3z"/>
	</g>
</g>
</svg>
