<svg id="Capa_1" enable-background="new 0 0 512 512" height="512" viewBox="0 0 512 512" width="512" xmlns="http://www.w3.org/2000/svg"><g><path d="m248.97 271.6c0 8.26-6.73 14.98-15 14.98s-15-6.72-15-14.98 6.73-14.97 15-14.97 15 6.71 15 14.97z"/><path d="m414.98 65.85c-42.47-42.46-98.93-65.85-158.98-65.85s-116.51 23.39-158.98 65.85c-42.46 42.47-65.85 98.92-65.85 158.98 0 95.52 60.05 180.26 149.8 211.99l75.03 75.18 75.03-75.18c89.75-31.73 149.8-116.47 149.8-211.99 0-60.06-23.39-116.51-65.85-158.98zm-158.98 320.54c-89.09 0-161.57-72.48-161.57-161.56 0-89.09 72.48-161.57 161.57-161.57s161.57 72.48 161.57 161.57c0 89.08-72.48 161.56-161.57 161.56zm0-293.13c-72.55 0-131.57 59.02-131.57 131.57 0 72.54 59.02 131.56 131.57 131.56s131.57-59.02 131.57-131.56c0-72.55-59.02-131.57-131.57-131.57zm22.97 80.09v98.25c0 24.8-20.19 44.98-45 44.98-24.82 0-45-20.18-45-44.98s20.18-44.97 45-44.97c5.25 0 10.3.9 15 2.57v-78.89l55.2-14.73 7.73 28.99z"/></g></svg>