<svg height='100px' width='100px'  fill="#FFFFFF" xmlns:dc="http://purl.org/dc/elements/1.1/" xmlns:cc="http://creativecommons.org/ns#" xmlns:rdf="http://www.w3.org/1999/02/22-rdf-syntax-ns#" xmlns:svg="http://www.w3.org/2000/svg" xmlns="http://www.w3.org/2000/svg" xmlns:sodipodi="http://sodipodi.sourceforge.net/DTD/sodipodi-0.dtd" xmlns:inkscape="http://www.inkscape.org/namespaces/inkscape" viewBox="0 0 79.999937 79.999937" version="1.1" x="0px" y="0px"><path d="m 9.7230695,16.443059 c 0,0 10.7076795,2.14154 10.7076795,2.14154 0,0 5.35385,1.07077 5.35385,1.07077 0,0 2.95384,0.44677 2.95384,0.44677 0,0 5.53846,-1.07446 5.53846,-1.07446 0,0 11.07691,-2.21539 11.07691,-2.21539 0,0 6.46154,-1.1483 6.46154,-1.1483 0,0 6.46153,1.25907 6.46153,1.25907 0,0 11.44614,2.28923 11.44614,2.28923 0,0 6.27692,1.21846 6.27692,1.21846 0,0 0,44.307661 0,44.307661 0,0 -5.72307,-1.181538 -5.72307,-1.181538 0,0 -10.70768,-2.141533 -10.70768,-2.141533 0,0 -5.35385,-1.07077 -5.35385,-1.07077 0,0 -2.95384,-0.44677 -2.95384,-0.44677 0,0 -5.53846,1.07446 -5.53846,1.07446 0,0 -11.07691,2.215383 -11.07691,2.215383 0,0 -6.46154,1.148307 -6.46154,1.148307 0,0 -6.46153,-1.259076 -6.46153,-1.259076 0,0 -11.44614,-2.289234 -11.44614,-2.289234 0,0 -6.2769195,-1.21846 -6.2769195,-1.21846 0,0 0,-44.30765 0,-44.30765 0,0 5.72307,1.18153 5.72307,1.18153 z m 63.5076395,7.68 c 0,0 -0.1883,-1.36985 -0.1883,-1.36985 0,0 -1.28862,-0.4763 -1.28862,-0.4763 0,0 -3.32307,-0.66462 -3.32307,-0.66462 0,0 -11.63076,-2.32615 -11.63076,-2.32615 0,0 -5.53846,-0.97292 -5.53846,-0.97292 0,0 -5.72307,1.12061 -5.72307,1.12061 0,0 -10.8923,2.17846 -10.8923,2.17846 0,0 -6.46154,1.15754 -6.46154,1.15754 0,0 -4.61538,-0.89908 -4.61538,-0.89908 0,0 -10.8923,-2.17846 -10.8923,-2.17846 0,0 -5.9076795,-1.10769 -5.9076795,-1.10769 0,0 0,37.29228 0,37.29228 0.002,0.528 -0.10339,1.25723 0.42646,1.56738 0,0 2.8966095,0.648 2.8966095,0.648 0,0 6.64615,1.32923 6.64615,1.32923 0.96,0.192 2.41107,0.68308 3.32307,0.33231 -0.87323,-0.216 -2.10092,-1.08185 -2.71015,-1.74646 -0.40061,-0.43569 -0.56307,-1.02831 0.14031,-1.26462 0.44677,-0.15138 1.53231,0.18831 2.016,0.31016 0,0 2.21538,0.68492 2.21538,0.68492 0,0 2.03077,0.41908 2.03077,0.41908 0,0 1.464,0.5243 1.464,0.5243 0.68123,0.0148 0.62954,-0.70153 0.92123,-1.08553 0.27692,-0.36185 0.53169,-0.35816 0.93784,-0.42646 0,0 0.63139,1.69292 0.63139,1.69292 0,0 0.29538,0.98215 0.29538,0.98215 0,0 0.56123,0.32677 0.56123,0.32677 0,0 1.65046,-0.25662 1.65046,-0.25662 0,0 3.68492,-0.97846 3.68492,-0.97846 0,0 3.33046,-2.34092 3.33046,-2.34092 0,0 4.43077,-1.53969 4.43077,-1.53969 0,0 2.95384,-1.28492 2.95384,-1.28492 0,0 2.4,0.13661 2.4,0.13661 0,0 2.95384,-0.78276 2.95384,-0.78276 0,0 2.03077,-0.72923 2.03077,-0.72923 0,0 2.21538,0.34338 2.21538,0.34338 0,0 3.46892,0.82892 3.46892,0.82892 0,0 1.16493,0.89354 1.16493,0.89354 0,0 2.19692,1.23138 2.19692,1.23138 0,0 -3.13846,0.18462 -3.13846,0.18462 0.51692,1.03569 0.74584,1.37723 -0.36923,2.03077 0,0 0,0.36923 0,0.36923 0,0 7.75384,1.62461 7.75384,1.62461 0,0 7.93845,1.51385 7.93845,1.51385 0,0 0,-37.29228 0,-37.29228 z m -26.95382,-2.27262 c 0,0 2.21538,-1.32738 2.21538,-1.32738 0.81231,-0.47077 1.78523,-1.24615 2.76923,-1.272 1.17415,-0.0332 1.06154,1.07815 2.58461,1.50277 0,0 3.69231,0.94892 3.69231,0.94892 0,0 2.03077,0.72923 2.03077,0.72923 0,0 2.58461,0.624 2.58461,0.624 0,0 3.13846,1.25169 3.13846,1.25169 -0.24739,1.47877 -1.06339,0.92677 -1.44923,1.72431 -0.16431,0.34154 0.10338,1.17046 0.15692,1.59877 -0.54277,-0.0443 -1.01354,-0.0775 -1.34954,-0.58154 -0.34892,-0.52062 0.0129,-2.31323 -1.23507,-1.26461 0,0 -1.66154,-0.55385 -1.66154,-0.55385 0.32308,1.94031 2.00308,0.50215 2.4,2.95384 0,0 -0.92308,0 -0.92308,0 0,0 0,0.73846 0,0.73846 0,0 -0.55384,0 -0.55384,0 -0.0166,1.70585 -0.18093,1.56923 -1.47692,1.84616 2.15815,1.30153 -0.24924,2.60861 -1.47693,3.13846 0.27877,0.51323 0.58708,1.03938 0.504,1.6523 -0.13846,1.03754 -1.31446,0.90646 -1.96061,0.43385 -0.53723,-0.39323 -1.55815,-2.66585 -1.86646,-3.37846 -1.11877,0.64984 -1.31446,0.55015 -1.36062,1.84615 -0.0258,0.72554 -0.41169,1.27754 -1.20184,0.94708 -0.69785,-0.29169 -0.81785,-1.23877 -1.11138,-1.87015 -0.39508,-0.85108 -1.04862,-1.46031 -1.896,-1.86831 -0.38585,-0.18646 -2.14154,-0.47446 -2.52554,-0.35815 -0.61108,0.18461 -0.68677,0.95076 0.16062,1.27569 0,0 1.28861,0.2123 1.28861,0.2123 -0.22154,0.45047 -0.44123,0.888 -0.79938,1.2517 -0.42277,0.4283 -1.78708,1.22953 -2.32431,0.67015 -0.25846,-0.26954 -0.92123,-2.53292 -1.78523,-2.07508 -0.33415,0.17723 -0.31938,0.58339 -0.22708,0.8917 0.16247,0.55199 0.97846,2.25046 1.464,2.55322 0.98769,0.61293 1.96431,-0.27507 2.93354,-0.52246 -0.19939,1.72985 -1.20923,1.71323 -2.02708,3.32308 -0.92123,1.81107 -0.67938,1.83138 -1.24984,3.32307 0,0 -0.78646,1.84615 -0.78646,1.84615 -0.26216,0.88616 0.12923,1.08 -0.51692,2.03077 -0.6,0.88615 -2.0197,2.17477 -3.13108,1.34031 -0.79385,-0.59262 -0.48369,-1.37723 -0.53354,-2.07877 0,0 -0.23261,-1.47692 -0.23261,-1.47692 -0.0166,-1.41785 0.47815,-1.23138 -0.21969,-2.95385 -0.14954,-0.37107 -0.2917,-0.7643 -0.58893,-1.05046 -1.50646,-1.44923 -3.78646,1.8997 -4.55999,-0.9803 -0.13477,-0.0295 -0.23631,0.0351 -0.44493,-0.14216 -0.46153,-0.38769 -0.3083,-1.93107 -0.10892,-2.44246 0.168,-0.42646 0.52246,-0.91569 0.79385,-1.2923 0.89169,-1.24062 2.27446,-2.41846 3.82153,-2.70646 1.152,-0.216 0.98954,0.20677 2.58461,-0.26031 1.48431,-0.43385 2.42585,0.53354 2.95385,-1.09477 -0.98769,0.0665 -2.44615,-0.10708 -3.32308,-0.55384 -0.744,1.272 -1.39384,1.02646 -2.39999,0.18461 -0.16247,0.37662 -0.39139,0.92492 -0.61846,1.25723 -0.58708,0.85846 -1.97354,1.32185 -2.12308,0.19939 -0.12369,-0.93047 0.53538,-1.5397 0.48,-2.088 -0.048,-0.48185 -0.64615,-0.984 -0.36738,-1.76677 0.40061,-1.12246 1.69476,-1.20185 2.4443,0 0,0 1.29231,-0.18646 1.29231,-0.18646 0,0 0,-0.36923 0,-0.36923 -0.74031,-0.12739 -1.20369,-0.43569 -1.02092,-1.29231 0.22707,-1.06523 2.36861,-2.7803 3.46892,-2.88738 0.92492,-0.0886 1.61353,-0.21785 1.79815,0.85661 1.59877,-1.52123 2.06954,-1.44738 3.87692,-2.45723 z m -35.63074,1.48246 c 0,0 2.21538,-0.83076 2.21538,-0.83076 0,0 2.76923,0.51323 2.76923,0.51323 0.14584,0.24553 0.15507,0.35261 0.42277,0.56492 0.48,0.28431 1.99015,0.408 2.45353,0 0.288,-0.19754 0.33046,-0.43015 0.44677,-0.74954 0,0 6.09231,0.49292 6.09231,0.49292 0.85292,0.0425 0.82707,0.30831 1.66153,-0.12369 0.49108,0.22892 1.83877,0.63877 2.36862,0.71446 0.52984,0.0738 2.53476,-0.73661 3.35446,-0.89354 0.44307,-0.12553 1.16307,-0.28061 1.5563,0 0.67015,0.55016 -0.009,1.55816 -0.45969,1.95693 0,0 -2.38154,1.92184 -2.38154,1.92184 -0.44861,0.44862 -1.20553,1.50831 -1.7003,1.73723 -1.85723,0.86585 -1.67077,-2.29661 -1.44554,-3.22154 0,0 -1.63385,-0.92307 -1.63385,-0.92307 -0.3323,1.488 0.23262,1.57846 0,2.18215 -0.36738,1.15569 -2.20061,-0.57046 -2.79692,-0.88984 -0.35815,1.12246 -1.00615,0.92307 -2.03076,0.92307 0,0 0.36923,1.29231 0.36923,1.29231 0.43015,-0.41539 0.86584,-0.91385 1.47692,-1.04677 1.16861,-0.25662 2.18953,0.99508 2.53661,1.96984 0.19016,0.53354 0.32308,1.51754 -0.51692,1.52677 -0.32677,0.004 -0.80308,-0.27323 -1.09662,-0.41907 -0.0812,2.3003 -2.04553,1.23876 -3.45045,2.38153 -0.82523,0.67016 0.0369,1.416 -1.53416,1.68 -0.22523,-1.92554 -1.26277,-1.08738 -2.58461,-1.29231 0,0 0.18461,1.66154 0.18461,1.66154 0.42647,0.072 0.84923,0.11631 1.1557,0.46339 0.62953,0.71261 -0.0646,2.11753 1.08369,2.90584 0.92861,0.63692 1.49538,-0.27692 3.11446,0.56861 2.63446,1.37354 3.70707,3.19016 4.63199,3.94339 0.60739,0.49292 1.63385,0.47815 1.88492,1.35323 0.15693,0.55015 -0.27876,1.30707 -0.44307,1.84246 -0.15323,0.50215 -0.16062,1.25538 -0.38216,1.60615 -0.27323,0.432 -0.69046,0.45046 -1.14461,1.00431 0,0 -0.81969,1.43446 -0.81969,1.43446 -0.37108,0.54092 -0.68677,0.66276 -1.04492,1.3163 -1.02831,1.87939 -0.14216,2.064 -0.0978,3.86954 -1.824,0.21969 -1.89231,-0.82523 -2.42031,-2.21539 0,0 -0.53538,-1.2923 -0.53538,-1.2923 0,0 -0.336,-3.69231 -0.336,-3.69231 -0.072,-0.74953 0.0554,-1.72061 -0.19569,-2.39999 -0.30092,-0.82154 -2.05108,-2.808 -1.82215,-4.43077 0.0665,-0.48185 0.29538,-0.86585 0.50953,-1.29231 -2.12123,-1.04492 -1.52676,-2.03076 -2.80799,-3.2843 -0.83447,-0.816 -1.392,-0.46154 -1.91446,-0.89169 -0.46523,-0.38216 -0.50216,-1.056 -0.80308,-1.52862 -0.51508,-0.81046 -1.78708,-1.12246 -2.00861,-3.15692 -0.23816,-2.17661 1.97538,-3.0683 0.97846,-5.15815 -0.20308,-0.42646 -0.41354,-0.55938 -0.83262,-0.73846 -2.09169,-0.90092 -2.9575295,0.90092 -3.6886095,-1.11877 0,0 1.6615395,-0.23631 1.6615395,-0.23631 z m 46.52304,0.0517 c 0,0 0.18461,0.18461 0.18461,0.18461 0,0 0,-0.18461 0,-0.18461 0,0 -0.18461,0 -0.18461,0 z m -23.63075,3.13846 c 0,0 -0.92308,0.18461 -0.92308,0.18461 0,0 0.73846,-1.10769 0.73846,-1.10769 0,0 0.18462,0.92308 0.18462,0.92308 z m 11.26153,0.92307 c 0,0 0.55384,2.76923 0.55384,2.76923 1.27569,-1.03384 0.92677,-1.62831 0.36923,-2.95384 0,0 -0.92307,0.18461 -0.92307,0.18461 z m -3.66831,2.30215 c 0.22154,0.30647 0.78646,0.0905 1.08369,0 1.06708,-0.24 1.58031,-0.29723 1.29231,-1.56369 0,0 -0.55385,0.18462 -0.55385,0.18462 -0.78276,-0.78092 -2.21353,0.77907 -1.82215,1.37907 z m 21.94522,-0.64061 c 0,0 0,2.58461 0,2.58461 -0.88985,-0.11446 -0.99508,0.004 -1.47693,0.73846 -0.63877,-0.54646 -0.672,-0.64615 -0.73846,-1.47692 1.45477,0.24 1.36062,-0.61846 0.92308,-1.66154 0,0 1.29231,-0.18461 1.29231,-0.18461 z m -1.1077,8.4923 c -1.69476,0.12185 -0.94892,-1.04492 -1.3403,-1.79077 -0.36923,-0.70707 -0.76246,-0.17723 -0.87508,-1.5323 1.77046,0.82523 1.44554,1.79446 2.21538,3.32307 z m -41.95566,-2.98154 c 0.69231,0.18647 1.59508,1.78893 1.89416,2.42769 -0.34523,-0.0646 -1.36246,-1.42153 -1.36246,-1.42153 0,0 -1.22216,-1.00616 -1.22216,-1.00616 0.25662,-0.0258 0.408,-0.11261 0.69046,0 z m 37.12428,2.65477 c 0.51693,0.84185 -0.0868,2.18769 1.69292,2.72677 -0.12738,0.76431 -0.17723,0.86954 -0.92307,1.10769 -0.47815,-1.25354 -1.37538,-2.82461 -2.4,-3.6923 0.43754,-0.67939 1.10769,-0.99139 1.63015,-0.14216 z m 1.48431,1.72246 c -0.32677,-0.78646 0.45785,-1.69107 1.68554,-1.21107 -0.61477,0.83446 -0.3157,1.34215 0,2.21538 -0.63877,-0.13662 -1.40493,-0.32862 -1.68554,-1.00431 z m 7.96246,3.03508 c 0,0 -0.18462,0.92307 -0.18462,0.92307 0,0 -1.47692,-0.92307 -1.47692,-0.92307 -0.69231,0.57415 -1.00431,-1.02277 -1.10769,-1.47693 0,0 0.73846,-0.18461 0.73846,-0.18461 0,0 2.03077,1.66154 2.03077,1.66154 z m -26.21537,-0.18462 c 0,0 0.18462,0.18462 0.18462,0.18462 0,0 0,-0.18462 0,-0.18462 0,0 -0.18462,0 -0.18462,0 z m 4.2443,1.66154 c 0.0609,-0.43385 0.77354,-2.44615 1.4677,-1.54339 0.38584,0.50216 -0.44308,2.17662 -0.8437,2.54216 -0.24,0.216 -0.34707,0.20307 -0.624,0.29353 -0.0461,-0.48 -0.0738,-0.80492 0,-1.2923 z m 14.17107,0.76615 c 0,0 1.49169,-0.76246 1.49169,-0.76246 0,0 1.14646,-0.76984 1.14646,-0.76984 0,0 2.02339,-0.15693 2.02339,-0.15693 0.0849,1.03569 0.3083,1.18339 1.2923,1.47692 0,0 0,-0.55384 0,-0.55384 0.25108,0.0849 0.36739,0.0738 0.576,0.28984 0.28246,0.29539 0.37108,0.80862 0.52616,1.18708 0.3323,0.80123 0.97661,1.47138 0.57046,2.39261 -0.33046,0.75139 -1.24431,1.15016 -1.85723,1.85354 0,0 -1.72985,-0.81785 -1.72985,-0.81785 0,0 -1.24984,-1.47138 -1.24984,-1.47138 0,0 -1.08185,0 -1.08185,0 0,0 -2.21538,-0.29538 -2.21538,-0.29538 0,0 0.50769,-2.37231 0.50769,-2.37231 z m 11.30768,6.80307 c -1.03015,-0.0609 -2.23015,0 -2.58461,1.10769 0,0 -0.92307,-0.92307 -0.92307,-0.92307 0,0 1.66153,-0.92308 1.66153,-0.92308 0.62216,-0.0332 0.60369,-0.0185 0.92308,-0.55384 0.72369,0.37107 0.792,0.49476 0.92307,1.2923 z m -5.90768,-0.55384 c -0.65908,-0.0388 -0.89908,0.0111 -1.29231,-0.55385 -0.17354,-0.36923 1.58031,0.48554 1.29231,0.55385 z" style="" fill="#FFFFFF" fill-opacity="1" stroke="none"></path></svg>